<?xml version="1.0" standalone="no"?>
<!DOCTYPE svg PUBLIC "-//W3C//DTD SVG 20010904//EN"
 "http://www.w3.org/TR/2001/REC-SVG-20010904/DTD/svg10.dtd">
<svg version="1.0" xmlns="http://www.w3.org/2000/svg"
 width="501.000000pt" height="271.000000pt" viewBox="0 0 501.000000 271.000000"
 preserveAspectRatio="xMidYMid meet">

<g transform="translate(0.000000,271.000000) scale(0.100000,-0.100000)"
fill="#000000" stroke="none">
<path d="M3843 2661 l46 -49 0 -507 c-1 -473 0 -509 17 -541 l19 -34 86 0 c67
0 90 4 100 16 10 12 13 89 15 337 1 177 2 419 3 538 l1 216 52 37 52 36 -218
0 -219 0 46 -49z m229 -71 c5 -30 -3 -46 -16 -33 -9 10 -7 63 3 63 5 0 11 -14
13 -30z m-2 -310 c0 -58 2 -122 6 -142 5 -36 4 -38 -20 -38 -14 0 -26 1 -26 3
0 1 4 17 10 36 5 18 10 87 11 153 1 76 4 116 10 107 5 -8 9 -61 9 -119z m5
-230 c-3 -5 -11 -10 -16 -10 -6 0 -7 5 -4 10 3 6 11 10 16 10 6 0 7 -4 4 -10z"/>
<path d="M148 2633 c6 -2 18 -2 25 0 6 3 1 5 -13 5 -14 0 -19 -2 -12 -5z"/>
<path d="M4414 2628 c-6 -7 -16 -26 -24 -41 -17 -34 -8 -42 52 -52 20 -4 41
-12 47 -18 15 -19 16 -257 1 -289 -11 -23 -10 -30 9 -54 28 -35 27 -48 -6 -72
l-26 -19 26 -23 c34 -29 34 -41 0 -70 -22 -19 -24 -25 -12 -34 8 -6 20 -19 28
-29 12 -16 11 -21 -13 -46 -26 -28 -26 -28 -6 -46 25 -23 25 -43 -1 -71 l-20
-22 26 -27 c21 -20 26 -33 22 -55 -4 -20 -1 -33 12 -45 11 -9 21 -31 24 -48
13 -74 29 -143 36 -150 10 -10 18 34 17 95 -1 37 3 48 17 52 13 3 16 10 12 29
-5 19 1 31 27 56 18 17 37 31 43 31 5 0 -1 7 -13 16 -12 8 -27 25 -33 36 -10
19 -8 25 17 44 l28 23 -27 27 c-33 33 -33 37 -1 63 l27 21 -27 26 c-32 33 -32
35 -1 64 25 23 25 24 7 44 -37 41 -37 48 -1 77 22 18 28 29 18 29 -8 0 -26 11
-38 24 -21 23 -22 29 -13 73 6 26 11 98 10 158 0 123 2 127 85 140 41 7 44 16
18 60 l-18 30 -160 3 c-121 2 -162 -1 -169 -10z m263 -64 c-3 -3 -12 -4 -19
-1 -8 3 -5 6 6 6 11 1 17 -2 13 -5z m-55 -136 c2 -27 0 -48 -4 -48 -5 0 -7 30
-7 68 2 69 6 62 11 -20z m8 -78 c0 -5 -7 -10 -16 -10 -8 0 -12 5 -9 10 3 6 10
10 16 10 5 0 9 -4 9 -10z m0 -44 c0 -8 -4 -17 -9 -21 -12 -7 -24 12 -16 25 9
15 25 12 25 -4z m-15 -676 c3 -5 -1 -10 -9 -10 -9 0 -16 5 -16 10 0 6 4 10 9
10 6 0 13 -4 16 -10z"/>
<path d="M123 2583 c2 -25 -2 -28 -38 -33 l-40 -5 43 -29 c23 -16 42 -37 42
-46 0 -10 5 -20 11 -22 8 -3 12 -56 11 -178 l0 -175 -36 -3 -36 -3 0 166 c0
137 -3 172 -16 195 -11 17 -25 27 -38 26 -21 -1 -21 -2 -20 -341 3 -596 0
-544 28 -551 32 -8 66 3 66 22 0 8 -11 14 -27 15 l-28 0 25 11 c22 9 23 11 8
21 -14 10 -13 12 10 24 17 9 29 10 36 3 16 -16 51 -12 71 10 12 13 14 20 5 20
-7 0 -10 7 -6 15 3 9 -1 18 -9 22 -12 4 -8 11 17 29 30 22 30 24 9 24 -16 0
-21 5 -18 14 3 7 1 18 -4 23 -16 16 1 42 29 46 l27 4 -29 2 c-23 1 -27 5 -23
21 3 10 0 21 -7 24 -12 5 15 27 49 38 16 5 13 6 -11 7 -43 1 -47 10 -16 37
l27 23 -93 1 c-66 0 -93 3 -90 11 3 8 34 12 93 11 65 -1 84 1 68 8 -13 5 -23
14 -23 20 -1 5 -1 88 -1 183 -1 149 2 172 15 175 9 2 16 8 16 13 0 17 40 49
61 49 17 0 20 -4 14 -29 -4 -20 -2 -30 8 -34 22 -8 24 -338 2 -357 -19 -16
-19 -30 0 -30 19 0 19 -14 0 -30 -11 -9 -12 -17 -6 -23 7 -7 7 -16 1 -28 -6
-11 -6 -20 -1 -24 11 -6 9 -44 -3 -63 -4 -7 -4 -17 0 -24 10 -16 11 -119 1
-125 -4 -2 -3 -12 3 -22 5 -10 7 -21 3 -24 -3 -4 0 -13 7 -22 7 -8 8 -15 2
-15 -19 0 -23 -32 -5 -46 11 -8 13 -13 6 -14 -25 0 -13 -30 11 -30 18 0 24 6
24 23 1 53 11 302 12 305 5 8 1 102 -5 111 -3 7 -2 18 5 26 8 10 9 19 0 35 -6
11 -8 25 -5 30 3 5 8 88 10 185 l5 176 32 27 c17 15 49 39 71 53 l39 27 -32 7
c-22 5 -36 2 -48 -8 -17 -15 -74 -21 -180 -18 -44 1 -53 4 -51 19 3 37 -1 42
-40 42 -37 0 -40 -2 -38 -27z m5 -580 c-2 -10 -9 -18 -16 -17 -6 1 -24 2 -39
3 l-28 2 30 14 c42 19 57 18 53 -2z m-8 -43 c0 -5 -9 -10 -21 -10 -11 0 -17 5
-14 10 3 6 13 10 21 10 8 0 14 -4 14 -10z m19 -44 c9 -11 5 -15 -22 -20 -19
-4 -42 -3 -52 0 -15 6 -13 9 11 20 38 17 49 17 63 0z m-9 -52 c0 -2 -12 -4
-27 -4 -21 0 -24 3 -14 9 13 8 41 5 41 -5z m9 -37 c6 -8 8 -17 4 -20 -8 -9
-56 -9 -78 -1 -14 6 -13 9 7 19 31 17 53 18 67 2z m-14 -48 c10 -15 -1 -23
-20 -15 -9 3 -13 10 -10 16 8 13 22 13 30 -1z m16 -49 c6 0 7 -4 4 -10 -8 -13
-85 -13 -85 -1 0 11 38 20 58 15 8 -2 18 -4 23 -4z"/>
<path d="M3128 2533 c-12 -3 -18 -14 -18 -33 0 -21 11 -37 48 -66 80 -64 84
-70 92 -147 6 -51 5 -74 -3 -79 -9 -6 -9 -13 1 -28 9 -15 10 -26 2 -40 -6 -12
-7 -21 0 -25 5 -3 7 -11 4 -19 -10 -26 -10 -201 0 -214 7 -10 6 -16 -3 -21
-10 -6 -10 -14 -3 -28 8 -14 8 -23 1 -30 -8 -8 -8 -17 0 -30 7 -14 7 -23 0
-30 -8 -8 -8 -17 0 -30 7 -14 7 -23 -1 -31 -8 -8 -8 -15 0 -24 7 -9 7 -19 2
-28 -6 -10 -4 -21 7 -32 9 -10 21 -28 27 -41 11 -21 19 -22 132 -25 115 -2
121 -2 142 21 17 18 24 39 26 80 2 30 6 60 10 65 3 6 2 13 -4 17 -7 4 -7 12 0
25 7 13 7 21 -1 25 -6 4 -7 14 -4 24 10 24 13 321 4 327 -5 2 -3 16 3 29 7 16
8 32 2 46 -5 11 -7 53 -3 92 6 69 8 73 50 109 24 21 56 43 71 49 30 12 43 38
33 68 -4 15 -20 19 -86 25 -85 7 -501 6 -531 -1z m495 -55 c7 -25 0 -28 -64
-28 -48 0 -57 3 -55 18 1 22 22 31 73 29 30 -1 43 -6 46 -19z m-97 -199 c-1
-56 -18 -78 -51 -65 -13 5 -15 12 -10 34 4 15 7 39 6 55 -1 23 2 27 27 27 28
0 29 -1 28 -51z"/>
<path d="M1405 2520 c3 -5 24 -10 45 -10 21 0 42 5 45 10 4 6 -13 10 -45 10
-32 0 -49 -4 -45 -10z"/>
<path d="M2558 2523 c7 -3 16 -2 19 1 4 3 -2 6 -13 5 -11 0 -14 -3 -6 -6z"/>
<path d="M1917 2513 c-20 -20 17 -40 40 -22 11 10 11 14 1 20 -16 11 -32 11
-41 2z"/>
<path d="M2030 2491 c0 -16 5 -31 12 -33 8 -3 11 -56 9 -190 -1 -103 1 -208 5
-234 6 -45 7 -46 20 -23 9 17 13 83 13 233 0 137 4 212 11 216 7 5 8 15 1 33
-8 21 -17 27 -41 27 -27 0 -30 -3 -30 -29z"/>
<path d="M2190 2501 c0 -11 -4 -23 -10 -26 -5 -3 -10 -12 -10 -18 0 -9 2 -9 8
0 4 6 20 16 35 22 35 13 36 41 2 41 -18 0 -25 -5 -25 -19z"/>
<path d="M1738 2502 c-34 -4 -52 -25 -43 -52 8 -26 35 -26 63 0 34 32 24 57
-20 52z"/>
<path d="M2367 2503 c-21 -21 0 -62 34 -67 4 -1 21 -13 39 -28 18 -15 38 -24
44 -21 7 4 6 8 -2 11 -17 5 -15 32 2 32 8 0 17 7 20 16 7 18 -11 47 -25 38 -5
-3 -29 2 -54 11 -53 17 -50 17 -58 8z"/>
<path d="M2955 2502 c-32 -7 -45 -23 -39 -47 4 -16 0 -26 -13 -34 -32 -19 8
-12 55 9 28 13 42 25 42 38 0 25 -19 40 -45 34z"/>
<path d="M1150 2481 c-14 -27 -13 -29 18 -45 15 -8 46 -30 68 -50 21 -20 42
-36 47 -36 13 0 7 20 -8 26 -23 9 -29 43 -10 64 16 17 15 20 -4 39 -28 28 -96
29 -111 2z"/>
<path d="M1404 2475 c-4 -8 -4 -21 -1 -29 6 -14 -30 -26 -80 -26 -34 0 -19
-18 25 -29 45 -13 72 -53 72 -108 0 -41 14 -72 27 -60 4 5 6 29 5 54 -1 29 4
53 12 62 8 9 15 18 15 21 0 24 16 41 34 36 11 -3 30 0 41 7 19 11 15 13 -34
17 -49 4 -55 7 -55 28 0 36 -49 58 -61 27z"/>
<path d="M2622 2456 c6 -28 -7 -36 -58 -36 -41 0 -38 -24 4 -34 53 -12 74 -41
81 -111 7 -69 4 -75 -44 -75 -23 0 -24 4 -27 68 -3 63 -4 67 -28 70 -14 2 -30
9 -35 17 -13 16 -7 -122 6 -147 13 -24 11 -31 -5 -25 -10 4 -13 -5 -12 -36 1
-23 5 -48 9 -55 5 -7 4 -19 -3 -27 -9 -11 -9 -19 -2 -28 6 -7 7 -18 3 -25 -4
-7 -4 -36 -1 -65 4 -28 4 -54 0 -57 -9 -6 -5 -67 5 -94 5 -11 3 -21 -6 -27
-12 -8 -11 -11 4 -20 13 -8 15 -14 7 -29 -14 -26 4 -35 41 -20 33 14 38 30 9
30 -22 0 -27 16 -7 23 6 3 32 3 57 0 31 -3 51 0 65 10 19 15 19 16 -9 23 -17
4 -36 2 -47 -4 -14 -9 -26 -8 -51 3 -27 11 -30 15 -15 20 9 4 27 5 40 1 28 -7
79 6 84 21 7 20 -37 26 -56 9 -15 -14 -23 -15 -45 -5 -42 19 -25 34 40 34 46
0 59 3 59 15 0 21 -44 25 -59 5 -12 -17 -46 -12 -46 7 0 6 -8 16 -17 23 -15
11 -15 13 5 24 28 15 28 31 1 31 -18 0 -19 2 -9 15 14 16 80 21 80 5 0 -5 -8
-13 -17 -19 -17 -9 -17 -11 2 -25 20 -15 20 -15 -3 -16 -15 0 -22 -5 -19 -12
4 -12 29 -13 72 -3 24 5 29 54 7 68 -10 7 -10 12 -1 23 9 11 9 17 -1 29 -10
12 -9 16 4 21 23 9 20 19 -11 31 -29 11 -28 11 25 29 15 5 14 7 -8 19 -32 18
-48 18 -66 0 -15 -15 -40 -10 -61 11 -21 20 -15 27 20 20 17 -3 46 -2 62 2 29
8 30 11 33 73 1 35 9 81 17 102 18 44 19 77 4 77 -7 0 -8 11 -4 30 7 30 6 30
-35 30 -40 0 -42 -2 -38 -24z m18 -368 c0 -9 -30 -14 -62 -10 -15 2 -25 8 -22
13 6 10 84 7 84 -3z m10 -49 c0 -11 -66 -23 -87 -15 -15 6 -15 9 -3 16 18 11
90 10 90 -1z"/>
<path d="M2134 2425 c7 -20 9 -432 2 -444 -4 -5 -1 -13 5 -17 8 -4 7 -9 -2
-15 -12 -8 -12 -11 1 -18 12 -8 10 -12 -10 -19 l-25 -9 23 -7 c22 -7 22 -8 5
-22 -17 -12 -17 -13 0 -14 20 0 23 -16 5 -23 -10 -4 -9 -8 2 -16 13 -10 13
-12 0 -22 -13 -9 -13 -10 0 -6 13 3 15 49 18 325 2 291 1 322 -14 322 -10 0
-14 -5 -10 -15z"/>
<path d="M1995 2420 c-7 -11 -5 -488 2 -507 10 -25 23 -13 23 22 0 45 26 48
35 4 5 -21 10 -28 17 -21 16 16 -1 51 -28 58 l-25 6 1 207 c1 113 1 214 1 224
-1 18 -16 23 -26 7z"/>
<path d="M628 2413 c6 -2 18 -2 25 0 6 3 1 5 -13 5 -14 0 -19 -2 -12 -5z"/>
<path d="M690 2410 c-12 -7 -8 -11 18 -16 37 -8 37 -6 17 -45 -9 -16 -14 -37
-13 -47 2 -14 -6 -18 -44 -20 -48 -3 -55 3 -49 41 0 4 -3 7 -9 7 -5 0 -10 11
-10 24 0 29 -14 40 -57 43 -28 2 -32 -1 -37 -32 -7 -37 8 -79 26 -73 6 2 21
-6 33 -18 11 -11 28 -23 36 -26 9 -3 15 -21 17 -49 2 -24 5 -64 7 -89 1 -25 4
-119 6 -210 1 -91 6 -173 11 -182 5 -10 3 -18 -5 -21 -9 -3 -9 -7 -1 -18 6 -8
10 -32 9 -54 -2 -39 7 -55 31 -55 7 0 15 11 18 24 3 14 14 26 23 28 13 2 10 8
-16 24 l-33 21 28 8 29 7 -22 18 c-27 21 -29 30 -8 30 9 0 12 6 9 15 -7 17 21
21 31 5 9 -15 25 -12 25 6 0 8 -4 12 -10 9 -5 -3 -10 -1 -10 4 0 6 11 11 25
11 31 0 33 16 3 26 -14 4 -25 1 -33 -9 -11 -15 -14 -15 -35 0 -20 14 -20 17
-6 25 17 10 22 38 6 38 -5 0 -7 7 -3 16 3 9 0 20 -8 25 -11 7 -9 9 6 9 11 0
37 5 58 11 41 11 51 39 15 40 -13 0 -17 3 -10 6 6 2 12 13 12 23 0 10 -6 21
-12 23 -7 3 -3 6 10 6 28 1 28 12 0 30 -19 12 -23 11 -33 -3 -15 -20 -22 -20
-41 -2 -20 21 -18 38 6 31 24 -8 86 23 73 36 -11 11 -43 2 -43 -12 0 -18 -48
22 -53 44 -2 12 -8 30 -12 40 -5 13 -2 17 14 17 12 0 21 4 21 9 0 11 -25 21
-51 21 -10 0 -19 7 -19 15 0 18 14 19 65 1 22 -8 41 -21 43 -29 5 -22 42 -9
53 19 6 18 16 24 41 25 32 1 31 1 -11 12 l-43 12 -2 53 c-1 50 0 52 25 52 36
0 60 10 53 21 -7 12 -145 11 -164 -1z m50 -434 c0 -31 -12 -39 -42 -27 l-23
10 23 7 c18 5 20 9 11 20 -9 11 -7 14 10 14 16 0 21 -6 21 -24z"/>
<path d="M2750 2400 c0 -5 9 -10 20 -10 11 0 20 5 20 10 0 6 -9 10 -20 10 -11
0 -20 -4 -20 -10z"/>
<path d="M977 2393 c-11 -11 -8 -103 4 -103 33 0 49 22 49 65 0 40 -2 45 -23
45 -13 0 -27 -3 -30 -7z"/>
<path d="M1593 2352 c-13 -8 -20 -157 -9 -183 4 -10 1 -23 -8 -32 -13 -12 -14
-21 -6 -43 8 -19 7 -30 -2 -41 -10 -12 -9 -17 6 -25 17 -9 16 -11 -5 -31 -20
-19 -21 -22 -6 -25 21 -4 22 -16 1 -33 -14 -11 -14 -13 0 -21 20 -11 20 -26 1
-30 -14 -3 -14 -5 0 -25 18 -26 51 -32 41 -8 -3 8 -9 22 -12 30 -4 10 0 15 11
15 10 0 13 4 9 12 -12 18 -13 211 -2 225 5 7 6 22 2 35 -4 13 -6 60 -5 106 2
45 1 82 -1 82 -1 0 -8 -4 -15 -8z"/>
<path d="M2805 2342 c-4 -9 -7 -38 -6 -64 2 -26 -3 -56 -9 -68 -9 -16 -9 -25
-1 -33 14 -14 14 -47 0 -47 -7 0 -9 -12 -5 -36 5 -23 3 -41 -5 -50 -10 -12 -8
-16 10 -21 l22 -6 -22 -23 c-19 -20 -20 -24 -6 -24 21 0 22 -14 1 -31 -14 -12
-14 -14 3 -26 15 -12 16 -15 3 -23 -12 -7 -13 -13 -4 -28 8 -11 9 -24 3 -34
-12 -22 -1 -48 21 -48 21 0 35 16 21 24 -10 7 -9 81 2 92 3 4 3 14 -2 23 -8
17 -8 71 0 87 7 13 3 85 -6 107 -4 9 -3 17 2 17 16 0 15 200 -1 216 -12 11
-15 11 -21 -4z"/>
<path d="M1283 2335 c-3 -9 -3 -40 -1 -71 8 -89 34 -102 193 -94 45 2 57 5 35
7 -19 3 -43 12 -53 20 -13 13 -22 14 -41 5 -13 -6 -33 -8 -45 -5 -19 5 -21 13
-21 73 0 62 -2 68 -22 74 -33 9 -38 8 -45 -9z"/>
<path d="M868 2225 c-2 -3 -4 -44 -2 -92 1 -50 -2 -93 -8 -100 -7 -9 -7 -17 0
-26 9 -10 7 -19 -4 -35 -13 -19 -13 -22 -1 -22 19 0 17 -51 -2 -74 -11 -14
-11 -16 1 -16 11 0 14 -10 13 -34 -1 -18 -5 -38 -9 -44 -3 -5 1 -13 10 -16 14
-5 14 -7 0 -22 -19 -18 -12 -34 14 -34 15 0 18 7 16 34 -2 18 -6 38 -10 45 -4
6 -3 11 2 11 5 0 8 20 7 45 -1 25 2 48 7 51 5 3 5 11 0 17 -10 13 -9 63 1 73
3 4 2 15 -4 25 -6 12 -6 25 0 37 5 10 6 24 2 31 -5 7 -5 29 0 50 15 63 11 101
-9 101 -10 0 -21 -2 -24 -5z"/>
<path d="M1270 2172 c0 -4 5 -13 12 -20 8 -8 8 -15 -3 -28 -11 -13 -11 -18 -1
-21 14 -5 16 -43 2 -43 -6 0 -5 -8 2 -20 10 -15 10 -22 1 -31 -9 -9 -9 -18 -2
-32 8 -13 8 -22 1 -29 -7 -7 -7 -17 1 -30 10 -15 9 -20 -3 -28 -12 -7 -12 -12
-2 -22 16 -16 16 -48 0 -48 -8 -1 -7 -5 4 -13 12 -10 14 -17 6 -31 -13 -23 8
-39 37 -30 11 4 47 9 80 13 73 7 75 26 2 27 -28 0 -61 1 -72 2 -39 4 7 22 57
22 25 0 53 3 62 6 28 11 17 24 -19 24 -19 0 -35 -4 -35 -10 0 -5 -9 -10 -20
-10 -11 0 -20 5 -20 10 0 6 -7 10 -15 10 -8 0 -12 6 -9 14 4 10 16 12 42 9 22
-3 52 1 72 10 l35 14 -28 8 c-18 5 -37 3 -52 -5 -23 -12 -65 -6 -65 10 0 5 4
20 10 35 8 22 7 27 -11 33 -21 8 -21 9 5 25 17 11 35 15 51 11 24 -6 25 -8 10
-24 -11 -12 -13 -20 -5 -25 15 -10 2 -25 -23 -25 -15 0 -18 -3 -10 -11 7 -7
28 -9 57 -5 50 8 51 8 36 37 -9 16 -7 19 12 20 14 0 17 3 8 6 -8 2 -22 7 -30
9 -13 5 -12 7 3 15 38 22 18 32 -52 25 -41 -4 -72 -3 -75 3 -9 13 53 32 72 22
10 -5 31 -3 52 4 l35 13 -29 11 c-20 8 -38 9 -57 2 -30 -10 -72 -4 -63 10 3 5
19 9 37 8 30 -1 72 6 106 17 10 3 6 9 -13 19 -36 19 -55 19 -62 0 -9 -23 -36
-18 -74 15 -34 28 -60 38 -60 22z"/>
<path d="M743 1881 c3 -12 1 -19 -4 -15 -5 3 -9 -4 -9 -16 0 -16 5 -21 23 -18
17 2 22 9 22 33 -1 21 -7 31 -19 33 -15 3 -18 -1 -13 -17z"/>
<path d="M2046 1884 c-4 -10 -13 -13 -25 -9 -14 4 -20 0 -23 -19 -6 -30 -2
-36 24 -36 23 0 23 9 1 26 -17 12 -17 13 -1 14 26 0 68 22 62 31 -9 14 -31 10
-38 -7z"/>
<path d="M2050 1850 c0 -5 9 -10 21 -10 11 0 17 5 14 10 -3 6 -13 10 -21 10
-8 0 -14 -4 -14 -10z"/>
<path d="M1569 1814 c-10 -13 -10 -17 1 -24 14 -9 40 -3 40 10 0 4 -6 13 -14
19 -10 9 -16 7 -27 -5z"/>
<path d="M2045 1810 c3 -5 12 -10 20 -10 8 0 17 5 20 10 4 6 -5 10 -20 10 -15
0 -24 -4 -20 -10z"/>
<path d="M2005 1800 c-3 -5 3 -10 15 -10 12 0 18 5 15 10 -3 6 -10 10 -15 10
-5 0 -12 -4 -15 -10z"/>
<path d="M2040 1780 c-8 -5 -24 -12 -35 -16 -19 -7 -19 -8 4 -12 13 -2 26 0
30 5 3 4 12 8 19 9 29 2 33 5 27 14 -7 12 -24 12 -45 0z"/>
<path d="M2787 1763 c-13 -13 -7 -31 13 -36 23 -6 33 5 24 27 -6 16 -25 21
-37 9z"/>
<path d="M1560 1745 c0 -8 9 -15 20 -15 11 0 20 7 20 15 0 8 -9 15 -20 15 -11
0 -20 -7 -20 -15z"/>
<path d="M2050 1740 c0 -5 7 -10 15 -10 8 0 15 5 15 10 0 6 -7 10 -15 10 -8 0
-15 -4 -15 -10z"/>
<path d="M1291 1716 c-8 -10 -9 -16 -2 -21 12 -7 11 -95 -1 -111 -12 -16 21
-23 68 -14 21 4 31 8 22 9 -10 0 -18 6 -18 11 0 6 -9 10 -20 10 -11 0 -20 5
-20 10 0 6 7 10 15 10 18 0 20 16 3 24 -10 5 -10 7 0 12 10 5 10 9 0 21 -10
12 -9 17 5 28 9 7 17 15 17 19 0 12 -58 6 -69 -8z"/>
<path d="M1400 1721 c0 -12 37 -24 50 -16 20 12 10 25 -20 25 -16 0 -30 -4
-30 -9z"/>
<path d="M2000 1720 c0 -5 9 -10 19 -10 11 0 23 -4 26 -10 3 -5 10 -10 16 -10
5 0 9 5 9 10 0 6 -7 10 -15 10 -8 0 -15 5 -15 10 0 6 -9 10 -20 10 -11 0 -20
-4 -20 -10z"/>
<path d="M2620 1721 c0 -11 38 -21 56 -14 26 10 14 23 -21 23 -19 0 -35 -4
-35 -9z"/>
<path d="M743 1713 c-22 -8 -14 -23 12 -23 14 0 25 4 25 9 0 11 -21 19 -37 14z"/>
<path d="M1561 1696 c-9 -11 -6 -16 18 -24 29 -10 30 -10 19 14 -13 28 -21 30
-37 10z"/>
<path d="M2785 1700 c-3 -5 -16 -10 -28 -11 -15 -1 -10 -4 13 -10 46 -11 67
-4 50 16 -14 17 -26 19 -35 5z"/>
<path d="M870 1675 c7 -8 17 -15 22 -15 6 0 5 7 -2 15 -7 8 -17 15 -22 15 -6
0 -5 -7 2 -15z"/>
<path d="M2005 1680 c3 -5 13 -10 21 -10 8 0 14 5 14 10 0 6 -9 10 -21 10 -11
0 -17 -4 -14 -10z"/>
<path d="M2527 1673 c-3 -5 -7 -28 -8 -53 -4 -40 -2 -45 18 -48 17 -3 21 0 17
12 -3 9 -1 16 5 16 6 0 11 5 11 10 0 6 -9 10 -21 10 -17 0 -18 2 -7 13 7 7 22
17 33 21 l20 8 -20 8 c-26 11 -43 12 -48 3z"/>
<path d="M2640 1670 c-7 -4 -9 -13 -6 -19 10 -16 46 -14 46 3 0 17 -23 27 -40
16z"/>
<path d="M139 1658 c-6 -22 -6 -57 1 -67 10 -17 46 -9 42 9 -2 7 2 17 9 21 19
12 2 39 -26 39 -14 0 -25 -1 -26 -2z"/>
<path d="M735 1650 c-4 -6 5 -10 20 -10 15 0 24 4 20 10 -3 6 -12 10 -20 10
-8 0 -17 -4 -20 -10z"/>
<path d="M1412 1649 c2 -6 7 -10 11 -10 4 1 16 1 28 1 11 0 17 5 14 10 -8 14
-58 13 -53 -1z"/>
<path d="M2006 1635 c4 -8 8 -15 10 -15 2 0 4 7 4 15 0 8 -4 15 -10 15 -5 0
-7 -7 -4 -15z"/>
<path d="M2782 1643 c-10 -4 -10 -9 3 -23 22 -24 49 -16 34 11 -10 20 -15 21
-37 12z"/>
<path d="M860 1630 c0 -5 7 -10 15 -10 8 0 15 5 15 10 0 6 -7 10 -15 10 -8 0
-15 -4 -15 -10z"/>
<path d="M1570 1627 c0 -19 10 -27 26 -20 11 4 12 9 3 19 -15 18 -29 18 -29 1z"/>
<path d="M2130 1630 c0 -5 7 -10 16 -10 8 0 12 5 9 10 -3 6 -10 10 -16 10 -5
0 -9 -4 -9 -10z"/>
<path d="M2015 1600 c-3 -5 -1 -10 4 -10 6 0 11 5 11 10 0 6 -2 10 -4 10 -3 0
-8 -4 -11 -10z"/>
<path d="M2635 1600 c-8 -13 20 -24 42 -16 15 6 15 8 3 16 -20 13 -37 12 -45
0z"/>
<path d="M1400 1590 c0 -5 13 -10 29 -10 17 0 33 5 36 10 4 6 -8 10 -29 10
-20 0 -36 -4 -36 -10z"/>
<path d="M2113 1593 c9 -2 25 -2 35 0 9 3 1 5 -18 5 -19 0 -27 -2 -17 -5z"/>
<path d="M856 1581 c-3 -5 1 -11 9 -15 9 -3 15 0 15 9 0 16 -16 20 -24 6z"/>
<path d="M2787 1584 c-9 -10 4 -34 19 -34 8 0 14 4 14 9 0 12 -26 32 -33 25z"/>
<path d="M1555 1560 c-4 -6 5 -10 20 -10 15 0 24 4 20 10 -3 6 -12 10 -20 10
-8 0 -17 -4 -20 -10z"/>
<path d="M2051 1551 c-10 -18 -9 -21 9 -21 22 0 25 7 11 29 -7 11 -11 9 -20
-8z"/>
<path d="M4622 1510 c0 -14 2 -19 5 -12 2 6 2 18 0 25 -3 6 -5 1 -5 -13z"/>
<path d="M1404 1499 c12 -8 25 -8 40 -1 18 9 16 11 -19 11 -33 0 -37 -1 -21
-10z"/>
<path d="M2630 1500 c20 -13 47 -13 55 0 4 6 -9 10 -32 10 -28 0 -34 -3 -23
-10z"/>
<path d="M0 1449 c0 -11 4 -17 10 -14 5 3 10 13 10 21 0 8 -4 14 -10 14 -5 0
-10 -9 -10 -21z"/>
<path d="M814 1405 c-5 -19 -1 -32 15 -49 32 -34 27 -46 -23 -46 -35 0 -45 4
-49 20 -4 15 -14 20 -40 20 -20 0 -43 3 -52 6 -13 5 -16 2 -13 -17 2 -19 11
-25 43 -32 22 -4 52 -10 66 -13 28 -6 56 -45 45 -62 -3 -5 -3 -24 0 -40 5 -24
13 -32 36 -37 17 -4 35 -2 43 5 11 9 18 10 29 1 18 -15 31 14 13 30 -20 19 -9
77 16 85 18 6 19 7 3 16 -11 6 -15 16 -11 29 7 20 3 22 -47 33 -21 5 -27 13
-30 38 -4 42 -34 51 -44 13z m83 -171 c1 -31 -1 -35 -20 -32 -17 2 -23 11 -25
36 -3 28 0 32 20 32 19 0 23 -6 25 -36z"/>
<path d="M3040 1420 c0 -5 8 -14 18 -19 12 -8 14 -13 5 -19 -8 -5 -9 -13 -3
-22 13 -21 12 -30 -2 -27 -7 1 -13 -5 -13 -13 0 -8 7 -14 16 -12 14 2 17 -9
17 -69 1 -79 -4 -84 -17 -18 -6 31 -9 -15 -10 -158 -1 -176 1 -202 14 -197 10
4 15 0 15 -15 0 -23 -15 -29 -23 -8 -3 6 -5 -13 -5 -43 0 -48 1 -51 8 -22 8
35 20 54 20 33 0 -7 4 -10 10 -6 5 3 9 108 8 257 -1 258 2 277 37 248 12 -10
15 -9 15 8 0 12 5 24 10 27 18 11 11 21 -25 34 -20 7 -41 21 -48 32 -12 19
-47 27 -47 9z m40 -526 c0 -8 -4 -12 -10 -9 -5 3 -10 13 -10 21 0 8 5 12 10 9
6 -3 10 -13 10 -21z"/>
<path d="M975 1410 c-8 -14 13 -40 32 -40 20 0 12 44 -9 48 -9 2 -19 -2 -23
-8z"/>
<path d="M2086 1398 c-3 -7 -6 -22 -8 -33 -2 -12 -12 -21 -26 -23 -19 -3 -23
-9 -20 -35 3 -28 8 -33 51 -46 l47 -15 0 -247 c0 -154 -4 -250 -10 -254 -15
-9 -12 -41 5 -55 21 -18 19 -56 -5 -73 l-20 -14 20 -18 c25 -23 25 -47 0 -70
l-20 -18 20 -22 c26 -27 25 -46 -1 -69 l-21 -18 21 -19 c25 -24 27 -42 4 -64
-13 -14 -14 -20 -5 -34 22 -30 25 -44 14 -60 -23 -31 -24 -42 -8 -60 21 -23
20 -37 -4 -61 -16 -16 -17 -22 -6 -32 7 -8 18 -23 25 -36 10 -19 20 -22 81
-22 72 0 89 12 55 40 -8 7 -15 20 -15 30 0 10 7 23 15 30 8 7 15 17 15 22 0 5
-7 16 -15 24 -8 9 -15 22 -15 29 0 7 7 20 15 29 8 8 15 19 15 24 0 5 -7 15
-15 22 -21 17 -19 44 5 65 l20 18 -20 22 c-25 27 -25 47 0 70 l20 18 -20 19
c-26 24 -25 42 2 68 l22 20 -22 16 c-27 19 -28 45 -2 69 20 18 20 18 -6 46
-19 20 -25 34 -21 51 3 13 7 134 8 270 2 272 -4 249 66 263 39 8 47 18 39 51
-5 17 -13 24 -31 24 -20 0 -24 6 -27 33 l-3 32 -107 3 c-84 3 -109 1 -112 -10z
m141 -590 c-3 -8 -6 -5 -6 6 -1 11 2 17 5 13 3 -3 4 -12 1 -19z"/>
<path d="M2976 1393 c-8 -20 -3 -25 18 -17 20 8 21 20 2 27 -8 3 -17 -1 -20
-10z"/>
<path d="M1600 1382 c-14 -5 -12 -49 3 -59 6 -4 28 -13 47 -18 l35 -11 3 -69
c2 -42 -2 -79 -9 -93 -11 -19 -10 -29 5 -57 23 -42 24 -80 2 -104 -18 -20 -21
-47 -5 -56 5 -4 15 -19 20 -33 8 -21 6 -31 -11 -53 -24 -33 -25 -52 -5 -69 8
-7 15 -27 15 -45 0 -18 -7 -38 -15 -45 -19 -16 -19 -39 0 -64 19 -26 19 -70 0
-86 -19 -16 -19 -41 0 -66 19 -25 19 -68 0 -84 -8 -7 -15 -23 -15 -35 0 -12 7
-28 15 -35 21 -18 19 -63 -5 -93 l-20 -25 26 -32 c23 -27 26 -38 22 -78 -8
-66 -4 -72 52 -72 40 0 50 4 55 20 4 11 18 34 31 50 l26 30 -20 27 c-10 16
-21 35 -24 43 -6 18 18 70 32 70 17 0 11 26 -10 45 -12 11 -20 31 -20 50 0 19
8 39 20 50 11 10 20 22 20 27 0 5 -9 18 -20 30 -11 12 -20 34 -20 48 0 15 9
35 20 45 11 10 20 22 20 27 0 5 -9 18 -20 30 -11 12 -20 34 -20 48 0 15 9 35
20 45 11 10 20 23 20 30 0 7 -9 20 -20 30 -11 10 -20 30 -20 45 0 15 9 35 20
45 11 10 20 23 20 30 0 7 -9 20 -20 30 -11 10 -20 30 -20 45 0 14 9 36 20 48
25 27 25 28 -6 65 -23 27 -25 35 -18 81 4 28 7 72 6 98 -1 53 16 78 53 78 41
0 55 11 55 41 l0 29 -82 2 c-128 4 -247 3 -258 0z m260 -36 c0 -11 -19 -15
-25 -6 -3 5 1 10 9 10 9 0 16 -2 16 -4z m-70 -1316 c0 -5 -4 -10 -10 -10 -5 0
-10 5 -10 10 0 6 5 10 10 10 6 0 10 -4 10 -10z"/>
<path d="M3020 1370 c0 -5 5 -10 11 -10 5 0 7 5 4 10 -3 6 -8 10 -11 10 -2 0
-4 -4 -4 -10z"/>
<path d="M1115 1338 c-15 -22 -14 -23 11 -26 36 -5 54 4 54 28 0 28 -44 27
-65 -2z"/>
<path d="M975 1300 c-4 -6 -1 -17 5 -25 16 -19 15 -82 -1 -102 -11 -13 -11
-17 -1 -20 6 -3 12 -20 12 -39 0 -40 12 -38 35 6 12 23 13 38 3 84 -9 49 -9
59 7 76 9 10 27 21 39 23 11 2 -5 5 -36 6 -31 0 -60 -4 -63 -9z"/>
<path d="M3960 1225 c0 -18 9 -29 38 -44 52 -27 67 -57 53 -108 -13 -47 -11
-275 2 -284 5 -4 3 -16 -4 -27 -10 -16 -10 -23 0 -35 7 -10 8 -18 2 -21 -5 -4
-8 -30 -7 -59 2 -28 -1 -60 -6 -70 -5 -10 -5 -17 1 -17 6 0 8 -36 6 -90 -1
-50 1 -93 6 -96 5 -3 6 -11 2 -17 -11 -17 -10 -80 1 -95 6 -8 5 -17 -2 -24 -8
-8 -7 -16 1 -29 9 -14 9 -21 0 -30 -10 -10 -8 -15 5 -26 16 -12 16 -14 0 -27
-10 -7 -18 -16 -18 -20 0 -9 183 -7 199 3 10 7 9 11 -8 23 -24 17 -18 28 18
29 14 0 19 3 11 6 -8 2 -22 7 -30 9 -12 4 -12 7 -1 13 22 14 2 33 -33 30 -17
-1 -47 -1 -66 0 -33 2 -34 2 -15 17 14 10 31 13 57 9 42 -7 81 2 72 16 -3 6
-25 10 -48 9 -22 -1 -59 -1 -81 -1 -69 3 -11 25 67 26 37 1 71 4 75 8 15 15
-12 21 -88 19 -53 -2 -78 1 -74 8 3 5 27 10 53 10 63 0 130 19 111 31 -18 11
-76 12 -83 0 -6 -9 -82 2 -93 13 -7 7 28 10 67 7 13 -1 44 3 68 10 l44 12 -23
18 c-21 16 -21 19 -6 19 14 0 17 5 12 23 -4 12 -9 30 -12 41 -3 10 1 22 8 27
25 15 -3 24 -67 21 -39 -1 -64 2 -64 8 0 11 2 11 70 15 25 1 56 6 69 10 40 12
3 26 -64 23 -34 -2 -61 1 -62 7 -2 6 12 10 30 10 47 1 117 15 117 25 0 10 -60
17 -91 10 -31 -8 -70 0 -63 12 3 5 18 6 34 3 16 -4 50 1 81 11 l54 18 -33 8
c-18 5 -35 15 -39 23 -3 10 -19 15 -44 15 -21 0 -39 5 -39 10 0 13 46 13 71
-1 15 -7 24 -7 34 1 17 14 -3 60 -27 60 -9 0 -20 5 -23 10 -10 16 -35 12 -29
-5 4 -8 15 -15 26 -15 24 0 19 -24 -6 -28 -10 -2 -29 -1 -42 2 -23 6 -25 10
-21 56 2 28 7 53 10 56 5 6 1 129 -7 217 l-4 37 44 0 c43 0 44 -1 33 -22 -14
-26 -12 -220 2 -229 5 -3 7 -13 3 -22 -4 -13 -1 -17 14 -17 16 0 22 9 28 43 4
23 7 46 5 52 -1 5 -3 51 -4 102 l-2 92 32 6 c18 3 48 3 66 0 l32 -6 0 -132 c0
-98 -4 -136 -14 -146 -11 -12 -11 -16 2 -26 15 -10 15 -13 0 -28 -13 -13 -14
-19 -4 -31 7 -8 8 -17 3 -20 -5 -3 -8 -34 -6 -68 1 -36 -2 -68 -8 -76 -9 -10
-6 -14 12 -19 l23 -6 -24 -19 c-23 -17 -23 -19 -6 -29 18 -10 18 -12 1 -30
-17 -19 -17 -20 6 -26 22 -6 22 -7 5 -19 -16 -12 -17 -17 -6 -40 9 -22 9 -29
0 -35 -16 -10 6 -39 28 -39 12 0 14 7 10 30 -4 17 -3 30 1 30 4 0 7 36 6 80
-1 44 2 82 7 85 5 3 3 15 -4 27 -9 16 -9 22 0 25 10 3 10 10 2 24 -7 14 -7 24
0 33 6 7 7 16 3 20 -11 12 -9 100 2 109 7 6 7 10 1 13 -10 4 -10 312 0 322 3
3 0 11 -6 19 -13 15 -65 18 -74 3 -11 -17 -41 -11 -67 13 -23 21 -24 25 -9 35
13 8 4 11 -41 11 -54 1 -80 -10 -58 -24 21 -13 9 -25 -24 -25 -49 0 -65 8 -59
31 5 17 0 19 -51 19 -53 0 -56 -1 -56 -25z m147 -197 c-3 -8 -6 -5 -6 6 -1 11
2 17 5 13 3 -3 4 -12 1 -19z m68 -298 c11 -18 -26 -23 -43 -6 -15 15 -14 16
10 16 15 0 30 -5 33 -10z m5 -204 c0 -8 -6 -16 -12 -19 -9 -3 -7 -10 7 -21 11
-8 16 -16 10 -17 -5 0 -20 -2 -33 -3 -27 -3 -40 12 -21 26 11 7 11 11 2 15
-26 10 -14 33 17 33 19 0 30 -5 30 -14z m0 -93 c0 -20 -28 -27 -45 -13 -8 7
-15 9 -15 6 0 -4 -5 -4 -10 -1 -19 12 1 24 35 23 22 -1 35 -6 35 -15z m-15
-241 c6 -4 12 -22 13 -40 2 -32 1 -33 -30 -30 -40 4 -45 29 -8 38 24 6 23 7
-10 14 -31 7 -32 9 -15 16 26 11 37 11 50 2z"/>
<path d="M4443 1224 c0 -21 3 -25 26 -22 18 2 27 10 29 26 3 18 -1 22 -26 22
-25 0 -29 -4 -29 -26z"/>
<path d="M2840 1234 c0 -4 9 -18 21 -30 18 -19 19 -23 5 -37 -24 -24 -19 -37
14 -37 35 0 38 16 12 70 -15 30 -52 55 -52 34z"/>
<path d="M2491 1211 c-6 -11 -11 -33 -11 -49 0 -26 4 -30 33 -35 23 -4 38 0
52 14 19 19 19 19 -7 19 -23 0 -27 5 -30 32 -4 37 -22 47 -37 19z"/>
<path d="M2614 1196 c-3 -8 2 -26 11 -40 l17 -26 -41 0 c-43 0 -57 -16 -18
-22 21 -3 22 -7 27 -148 3 -80 7 -133 8 -117 1 15 7 27 12 27 6 0 10 43 10
108 0 80 4 113 15 128 14 19 14 19 16 -1 3 -48 -3 -212 -8 -234 -6 -25 -6 -25
15 -5 19 17 21 32 23 154 l2 135 -31 3 c-24 2 -32 8 -32 22 0 24 -18 36 -26
16z"/>
<path d="M2750 1190 c0 -5 7 -10 15 -10 8 0 15 5 15 10 0 6 -7 10 -15 10 -8 0
-15 -4 -15 -10z"/>
<path d="M3136 1103 c-9 -113 -8 -141 2 -238 7 -69 9 -52 10 123 1 111 0 202
-2 202 -2 0 -7 -39 -10 -87z"/>
<path d="M4668 1164 c-20 -19 37 -74 77 -74 7 0 16 -7 19 -16 11 -28 7 -409
-4 -420 -7 -7 -6 -20 4 -40 14 -25 14 -29 1 -37 -12 -6 -13 -13 -4 -28 8 -16
7 -25 -5 -38 -14 -16 -14 -19 1 -34 16 -15 16 -18 0 -35 -15 -17 -15 -19 0
-35 16 -16 16 -18 -1 -30 -17 -13 -17 -14 -1 -31 16 -15 16 -18 1 -35 -14 -16
-14 -19 2 -35 12 -14 14 -20 5 -23 -7 -3 -13 -13 -13 -23 0 -10 6 -20 13 -23
9 -3 9 -9 -1 -26 -10 -17 -10 -26 -2 -36 11 -14 15 -13 59 12 2 2 -2 9 -9 18
-10 13 -9 15 9 15 17 0 22 5 21 23 -3 37 -1 49 10 42 6 -3 10 -15 10 -26 0
-28 13 -23 29 11 10 23 10 34 2 44 -9 11 -8 17 2 28 12 12 12 17 1 32 -11 15
-10 22 3 42 8 13 11 24 5 24 -16 0 -24 33 -10 41 10 7 10 13 1 27 -9 16 -9 24
3 41 8 11 11 21 6 21 -18 0 -23 33 -7 50 18 19 2 42 -24 33 -14 -4 -14 -3 -1
6 27 19 1 24 -35 7 -38 -18 -66 -16 -64 6 0 10 2 10 6 1 8 -22 26 -14 20 8 -5
17 -2 20 13 16 27 -7 29 16 32 275 3 210 2 217 -17 222 -41 11 -48 7 -41 -24
5 -29 4 -30 -32 -30 -30 1 -34 3 -19 11 21 12 22 35 1 43 -20 8 -59 8 -66 0z
m148 -96 c-8 -27 -8 -292 0 -312 3 -7 -2 -16 -10 -19 -14 -6 -16 15 -16 173 0
159 2 180 16 180 12 0 15 -6 10 -22z m-15 -371 c-10 -9 -11 -8 -5 6 3 10 9 15
12 12 3 -3 0 -11 -7 -18z m43 -103 c25 -9 10 -22 -20 -16 -19 3 -22 7 -12 13
16 11 13 10 32 3z m11 -94 c-6 -9 -9 -9 -16 1 -10 17 0 34 13 21 6 -6 7 -16 3
-22z m5 -58 c0 -13 -12 -22 -22 -16 -10 6 -1 24 13 24 5 0 9 -4 9 -8z m0 -59
c0 -5 -5 -15 -10 -23 -8 -12 -10 -11 -10 8 0 12 5 22 10 22 6 0 10 -3 10 -7z
m0 -78 c0 -8 -4 -15 -10 -15 -5 0 -10 7 -10 15 0 8 5 15 10 15 6 0 10 -7 10
-15z"/>
<path d="M4932 1143 c3 -24 8 -28 33 -28 25 0 30 4 30 25 0 21 -5 26 -33 28
-31 3 -33 2 -30 -25z"/>
<path d="M83 1143 l-83 -4 0 -54 c0 -52 1 -55 43 -83 83 -58 83 -59 89 -154 4
-52 2 -90 -4 -96 -6 -6 -7 -19 -3 -29 11 -27 14 -103 4 -109 -5 -3 -6 -10 -2
-17 10 -16 11 -170 1 -184 -5 -7 -5 -14 2 -18 6 -4 8 -20 4 -40 -3 -19 -1 -35
5 -39 7 -5 7 -13 -1 -26 -9 -14 -9 -22 1 -33 10 -12 10 -19 0 -35 -10 -16 -10
-23 0 -35 10 -12 10 -20 -1 -37 -11 -17 -11 -22 2 -30 13 -8 13 -13 2 -31 -12
-18 -10 -23 12 -44 14 -13 26 -29 26 -35 0 -6 53 -10 153 -10 121 0 157 3 174
15 18 13 21 20 13 40 -5 14 -6 25 -1 25 15 0 22 30 11 49 -6 12 -5 22 3 30 8
8 9 16 0 29 -7 12 -8 24 -2 35 6 10 6 23 0 35 -6 11 -6 24 1 35 6 12 6 22 -2
32 -8 10 -8 18 1 33 10 16 10 23 0 36 -11 12 -11 19 -2 30 9 10 9 20 3 33 -7
12 -7 25 0 36 7 13 6 22 -2 33 -10 11 -10 17 0 28 8 11 9 20 2 33 -7 11 -7 24
0 36 6 13 6 23 -2 32 -9 11 -9 23 -1 46 6 18 7 38 2 47 -5 10 -6 54 -3 99 5
95 12 105 113 170 57 37 59 40 59 81 0 23 -1 42 -2 43 -15 3 -553 5 -615 2z
m453 -39 c29 -8 20 -42 -13 -55 -68 -26 -163 -1 -133 35 16 21 102 32 146 20z
m-93 -201 c10 -35 7 -106 -4 -119 -15 -19 -48 -18 -69 1 -22 20 -16 104 8 123
23 18 60 15 65 -5z m-173 -103 c0 -5 -4 -10 -10 -10 -5 0 -10 5 -10 10 0 6 5
10 10 10 6 0 10 -4 10 -10z m163 -87 c-13 -2 -33 -2 -45 0 -13 2 -3 4 22 4 25
0 35 -2 23 -4z"/>
<path d="M1199 1139 c-16 -9 0 -34 41 -65 36 -27 40 -33 41 -79 0 -27 2 -232
5 -455 5 -555 3 -540 80 -540 25 0 43 4 39 9 -10 17 15 23 31 7 19 -19 34 -12
34 15 0 11 5 30 11 42 8 15 12 158 11 491 l0 471 45 41 c25 23 44 47 41 54 -4
12 -360 21 -379 9z m291 -19 c0 -5 -4 -10 -10 -10 -5 0 -10 5 -10 10 0 6 5 10
10 10 6 0 10 -4 10 -10z m-45 -100 c-3 -5 -10 -10 -16 -10 -5 0 -9 5 -9 10 0
6 7 10 16 10 8 0 12 -4 9 -10z m-5 -55 c0 -8 -4 -15 -10 -15 -5 0 -10 7 -10
15 0 8 5 15 10 15 6 0 10 -7 10 -15z m4 -80 c-6 -16 -34 -21 -34 -7 0 13 11
22 26 22 8 0 11 -6 8 -15z m6 -81 c0 -16 -16 -19 -25 -4 -8 13 4 32 16 25 5
-4 9 -13 9 -21z m-10 -74 c0 -5 -4 -10 -10 -10 -5 0 -10 5 -10 10 0 6 5 10 10
10 6 0 10 -4 10 -10z m5 -80 c-3 -5 -10 -10 -16 -10 -5 0 -9 5 -9 10 0 6 7 10
16 10 8 0 12 -4 9 -10z m5 -64 c0 -11 -19 -15 -25 -6 -3 5 1 10 9 10 9 0 16
-2 16 -4z m-7 -91 c-5 -13 -23 -22 -23 -11 0 15 14 35 21 31 4 -3 6 -12 2 -20z
m-3 -85 c0 -5 -4 -10 -10 -10 -5 0 -10 5 -10 10 0 6 5 10 10 10 6 0 10 -4 10
-10z m-8 -82 c-7 -7 -12 -8 -12 -2 0 14 12 26 19 19 2 -3 -1 -11 -7 -17z m8
-68 c0 -5 -4 -10 -10 -10 -5 0 -10 5 -10 10 0 6 5 10 10 10 6 0 10 -4 10 -10z
m-10 -206 c0 -8 -5 -12 -10 -9 -6 4 -8 11 -5 16 9 14 15 11 15 -7z"/>
<path d="M843 1128 c-38 -8 -43 -13 -49 -43 -5 -26 -1 -41 16 -65 26 -37 20
-63 -20 -87 -31 -18 -47 -43 -28 -43 17 0 68 -51 68 -68 0 -15 -48 -62 -62
-62 -21 0 -4 -37 25 -55 46 -29 47 -53 1 -92 l-39 -32 45 -41 44 -41 -43 -37
-44 -38 28 -22 c16 -13 35 -20 43 -17 7 3 20 5 27 5 8 0 17 10 20 21 6 19 9
20 22 6 8 -8 16 -30 18 -48 4 -54 21 -44 23 13 1 53 -11 71 -57 89 -13 5 -11
8 7 18 18 10 23 9 28 -4 9 -21 31 -19 37 5 8 29 24 24 36 -12 9 -25 8 -35 -3
-47 -25 -27 8 -71 52 -71 l23 0 -20 26 c-12 15 -21 33 -21 41 0 23 31 83 40
78 5 -3 11 -1 15 5 3 5 0 10 -7 10 -19 0 -50 57 -43 79 3 10 16 31 30 47 23
27 24 28 5 41 -49 34 -48 90 2 122 l31 19 -24 13 c-58 30 -63 69 -14 115 l35
33 -22 12 c-13 7 -26 17 -30 23 -5 8 -8 7 -8 -1 0 -7 -5 -13 -11 -13 -6 0 -8
7 -5 16 3 8 2 13 -3 10 -4 -3 -14 6 -22 20 -14 28 -49 52 -49 34 0 -5 -4 -10
-10 -10 -5 0 -10 7 -10 15 0 8 -5 15 -11 15 -6 0 -9 7 -5 15 6 17 0 17 -61 3z
m107 -99 c0 -11 -5 -16 -14 -13 -7 3 -13 16 -13 30 0 20 2 22 13 13 8 -6 14
-20 14 -30z m35 -39 c-3 -10 -2 -28 4 -38 7 -14 6 -25 -5 -40 -8 -12 -12 -27
-8 -33 4 -7 7 -26 6 -42 0 -17 3 -38 8 -47 6 -11 4 -24 -6 -38 -11 -16 -12
-27 -4 -41 12 -24 -1 -35 -29 -26 -16 5 -19 12 -14 40 5 29 2 35 -11 35 -24 0
-49 27 -42 45 8 22 23 18 29 -6 3 -12 11 -19 18 -17 16 5 32 62 19 66 -6 2
-10 17 -10 32 0 21 -8 33 -30 47 -31 18 -40 43 -15 43 7 0 18 -7 23 -16 8 -14
10 -14 25 1 10 9 14 21 11 27 -4 6 0 14 7 19 22 14 31 10 24 -11z m7 -356 c2
-19 0 -38 -5 -41 -5 -3 -7 -21 -4 -39 4 -25 2 -34 -8 -34 -31 0 -41 11 -37 41
4 24 0 31 -17 36 -11 3 -21 9 -21 14 0 5 -7 9 -15 9 -9 0 -12 6 -9 15 8 20 31
19 42 -1 8 -14 12 -13 28 9 26 36 41 33 46 -9z m-102 -74 c0 -5 -5 -10 -11
-10 -5 0 -7 5 -4 10 3 6 8 10 11 10 2 0 4 -4 4 -10z"/>
<path d="M2747 1123 c-4 -3 -1 -15 4 -26 8 -13 9 -74 5 -181 -3 -89 -5 -162
-6 -163 -1 -10 -40 0 -50 12 -9 11 -16 12 -25 5 -10 -8 -17 -5 -29 12 -9 12
-16 20 -17 18 0 -3 -1 -20 -2 -38 -2 -30 0 -32 22 -27 14 4 27 1 32 -6 6 -10
11 -10 24 1 20 17 40 0 31 -28 -8 -25 -50 -26 -93 -2 -35 20 -52 11 -46 -25
12 -79 15 -85 35 -74 11 6 27 7 36 4 31 -13 92 -12 104 2 8 10 7 18 -6 31 -9
10 -16 26 -16 36 0 22 19 59 36 69 11 6 11 15 -5 45 -12 24 -16 44 -10 57 4
11 8 75 8 143 1 118 2 122 23 122 12 0 19 2 17 4 -9 7 -67 15 -72 9z"/>
<path d="M4860 1101 c0 -6 5 -13 10 -16 7 -4 10 -80 10 -212 -1 -113 1 -207 4
-211 3 -3 6 90 6 206 0 132 4 213 10 217 6 4 8 11 5 16 -8 12 -45 12 -45 0z"/>
<path d="M3607 1064 c-18 -18 -2 -24 70 -24 42 0 73 3 69 7 -13 13 -128 28
-139 17z"/>
<path d="M3495 1050 c-7 -11 31 -22 59 -17 11 2 22 9 24 15 5 15 -74 17 -83 2z"/>
<path d="M3830 1016 c0 -50 -15 -57 -121 -54 -93 3 -94 3 -94 28 0 21 -5 25
-30 25 -25 0 -30 -4 -30 -25 0 -22 -5 -25 -40 -28 -39 -3 -76 -22 -43 -22 8 0
21 -7 28 -15 7 -8 23 -15 36 -15 33 0 47 -39 42 -114 -3 -43 -1 -59 9 -63 19
-7 37 12 27 28 -8 14 -7 80 2 112 3 9 11 17 19 17 7 0 15 7 19 15 7 19 22 19
30 -1 4 -10 2 -13 -7 -9 -6 4 -3 -1 7 -9 11 -9 23 -16 28 -16 13 0 9 -105 -4
-119 -11 -10 -9 -15 6 -27 17 -12 17 -14 4 -14 -25 0 -30 -16 -11 -35 14 -14
14 -18 2 -26 -11 -7 -12 -12 -1 -29 7 -11 8 -20 3 -20 -13 0 -11 -81 2 -97 6
-8 6 -13 0 -13 -11 0 -12 -214 -1 -225 4 -4 1 -16 -5 -26 -10 -16 -9 -21 2
-28 17 -11 6 -30 -23 -40 -18 -7 -15 -9 21 -15 51 -9 70 -1 51 22 -10 11 -10
16 -1 19 9 3 9 10 1 28 -8 18 -8 28 0 38 9 10 9 16 0 25 -8 8 -8 15 1 26 9 10
9 16 1 21 -6 4 -8 14 -5 24 11 26 13 91 4 97 -5 3 -5 14 1 24 7 13 7 21 0 25
-7 4 -6 13 1 26 7 15 7 24 -1 34 -7 8 -8 20 -4 27 5 7 7 76 6 152 l-2 139 40
37 c23 21 54 43 70 50 28 11 47 51 35 70 -4 6 -22 10 -41 10 -32 0 -34 -2 -34
-34z"/>
<path d="M3297 1016 c3 -16 19 -34 42 -48 20 -12 38 -26 39 -30 6 -13 29 -9
42 7 10 12 10 15 -4 15 -14 0 -14 3 -4 20 18 29 -9 52 -70 58 -49 4 -50 4 -45
-22z"/>
<path d="M3410 921 c0 -5 6 -14 14 -20 17 -14 29 -157 15 -183 -7 -12 -7 -24
-1 -31 8 -10 10 -131 2 -162 -1 -5 -1 -12 0 -15 7 -17 6 -91 -1 -96 -5 -3 -6
-11 -2 -17 4 -7 8 -59 9 -115 2 -57 4 -106 6 -108 7 -6 68 19 68 28 0 4 -9 8
-20 8 -11 0 -20 3 -20 8 0 11 16 34 24 33 26 -4 25 2 -1 10 -39 11 -42 24 -8
33 30 8 33 26 4 26 -12 0 -19 5 -17 12 3 7 27 13 60 14 31 1 64 6 74 12 19 10
19 11 0 18 -10 4 -33 2 -51 -5 -23 -8 -41 -8 -59 -1 -28 10 -32 20 -15 37 8 8
8 17 0 31 -9 17 -8 23 6 31 10 6 13 11 7 11 -18 0 -26 31 -13 46 9 11 8 18 -1
29 -10 12 -10 18 1 31 11 14 11 18 -4 28 -12 10 -14 15 -5 24 15 15 78 16 78
2 0 -5 -9 -10 -20 -10 -11 0 -20 -4 -20 -10 0 -5 16 -10 35 -10 19 0 35 5 35
11 0 6 12 9 28 6 15 -2 21 -2 14 0 -8 3 -11 12 -8 20 4 9 -1 17 -15 20 -11 3
-18 11 -15 18 4 13 -27 45 -44 45 -17 0 -11 -17 13 -33 27 -18 23 -23 -29 -29
-37 -5 -41 -3 -54 25 -12 28 -11 32 8 47 12 10 19 19 17 21 -2 3 -5 35 -6 72
-2 56 -5 67 -20 67 -9 0 -19 7 -23 15 -6 16 -46 21 -46 6z"/>
<path d="M3111 763 c-10 -11 -10 -18 -2 -26 6 -6 11 -15 11 -19 0 -12 -35 -9
-48 4 -16 16 -28 2 -14 -15 7 -8 9 -17 6 -20 -3 -3 -3 -11 1 -17 5 -8 10 -9
14 -2 9 14 61 2 61 -14 0 -19 -50 -30 -60 -13 -7 10 -11 10 -24 -1 -15 -12
-15 -15 -1 -30 8 -9 15 -25 16 -36 0 -11 3 -14 6 -6 4 10 8 10 19 1 19 -16 57
17 49 41 -3 10 -1 29 4 43 7 19 6 28 -4 37 -8 6 -15 29 -17 50 -3 33 -5 36
-17 23z"/>
<path d="M4258 753 c7 -3 16 -2 19 1 4 3 -2 6 -13 5 -11 0 -14 -3 -6 -6z"/>
<path d="M3560 590 c0 -5 -11 -10 -25 -10 -14 0 -25 -4 -25 -10 0 -13 61 -13
95 0 14 5 23 14 20 20 -8 13 -65 13 -65 0z"/>
<path d="M2600 570 c0 -5 -7 -7 -15 -4 -22 9 -18 -4 10 -37 20 -25 23 -34 14
-57 -6 -14 -14 -29 -19 -32 -4 -3 0 -24 11 -48 17 -36 23 -41 43 -36 13 3 27
1 30 -5 5 -7 13 -7 27 2 17 10 22 9 30 -6 10 -17 12 -17 29 -2 17 15 18 51 1
41 -3 -2 -7 10 -8 26 -3 39 -8 44 -26 26 -11 -10 -12 -19 -5 -32 8 -15 7 -17
-8 -14 -13 3 -18 11 -17 26 2 16 -4 24 -25 29 -15 4 -33 6 -39 5 -20 -4 -15
12 8 26 16 11 24 11 36 1 12 -10 16 -10 24 2 12 19 11 29 -1 29 -6 0 -8 10 -5
23 5 18 1 26 -20 35 -31 14 -75 16 -75 2z"/>
<path d="M2726 565 c-18 -14 -16 -45 2 -45 5 0 7 -11 5 -24 -6 -31 16 -45 34
-20 12 16 12 20 -2 30 -8 6 -13 13 -10 15 2 3 1 17 -3 31 -6 24 -9 25 -26 13z"/>
<path d="M3143 561 c-6 -22 -47 -33 -63 -17 -7 7 -15 6 -26 -5 -14 -15 -14
-18 0 -32 9 -8 16 -21 16 -27 0 -6 4 -9 9 -5 5 3 12 1 16 -4 3 -6 13 -7 21 -4
9 3 20 0 25 -8 6 -9 7 1 4 28 -3 23 -1 53 5 67 5 14 7 26 4 26 -3 0 -8 -9 -11
-19z"/>
<path d="M3561 536 c-6 -7 -22 -11 -36 -8 -30 5 -34 -14 -4 -23 23 -8 109 13
109 25 0 21 -53 26 -69 6z"/>
<path d="M3564 476 c-3 -8 -12 -12 -19 -10 -7 3 -16 0 -20 -7 -6 -9 4 -10 41
-4 56 8 67 13 59 26 -9 14 -55 11 -61 -5z"/>
<path d="M3051 437 c-8 -11 -6 -18 9 -32 11 -10 17 -22 13 -28 -4 -6 -1 -7 7
-2 7 4 15 3 19 -4 12 -19 50 24 44 49 -5 17 -11 20 -34 15 -18 -4 -29 -2 -29
4 0 15 -15 14 -29 -2z"/>
<path d="M3550 418 l-35 -20 54 6 c69 7 81 17 36 29 -11 3 -35 -3 -55 -15z"/>
<path d="M4346 344 c-8 -22 -9 -21 19 -26 21 -4 25 -1 25 18 0 28 -34 34 -44
8z"/>
<path d="M2592 325 c-20 -23 -20 -24 -1 -41 20 -18 27 -74 9 -74 -5 0 -10 -7
-10 -15 0 -8 -4 -15 -10 -15 -5 0 -10 -4 -10 -10 0 -13 57 -13 65 0 5 8 11 7
21 -1 8 -6 17 -9 20 -6 6 6 -32 47 -43 46 -4 0 -9 4 -11 9 -4 13 41 23 52 12
19 -19 25 -10 24 35 -1 47 -6 53 -61 74 -20 8 -28 5 -45 -14z"/>
<path d="M3050 330 c0 -5 5 -10 10 -10 6 0 10 -10 10 -23 0 -18 6 -23 29 -25
22 -2 30 3 35 20 11 44 8 48 -39 48 -25 0 -45 -4 -45 -10z"/>
<path d="M840 291 c0 -24 8 -48 20 -62 18 -23 19 -23 20 -4 0 21 39 45 72 45
24 0 23 17 -1 30 -33 17 -53 12 -49 -12 2 -17 -2 -23 -16 -23 -25 0 -31 19
-12 38 14 13 14 16 0 21 -29 11 -34 6 -34 -33z"/>
<path d="M2716 312 c-8 -14 23 -52 38 -46 11 4 11 10 2 30 -11 24 -30 31 -40
16z"/>
<path d="M3552 304 c-12 -13 -9 -14 25 -8 51 9 66 24 23 24 -19 -1 -41 -8 -48
-16z"/>
<path d="M4340 290 c-13 -9 -13 -11 0 -20 8 -5 22 -10 30 -10 8 -1 3 -7 -12
-16 -29 -15 -37 -34 -15 -34 6 0 23 -3 36 -7 19 -5 22 -3 15 8 -4 8 -8 30 -9
49 0 37 -17 48 -45 30z"/>
<path d="M3565 260 c-8 -13 20 -24 40 -16 8 3 15 10 15 16 0 13 -47 13 -55 0z"/>
<path d="M3060 230 c0 -21 33 -60 50 -60 12 0 30 33 30 56 0 12 -6 15 -25 12
-14 -3 -28 -1 -31 3 -10 16 -24 9 -24 -11z"/>
<path d="M975 204 c-14 -14 -15 -19 -4 -22 8 -2 20 -11 27 -20 10 -14 12 -13
12 9 0 40 -14 53 -35 33z"/>
<path d="M3560 200 c0 -5 11 -10 25 -10 14 0 25 5 25 10 0 6 -11 10 -25 10
-14 0 -25 -4 -25 -10z"/>
<path d="M2726 177 c-13 -10 -16 -20 -12 -35 12 -36 36 -27 34 13 -1 19 -2 35
-3 35 -1 0 -9 -6 -19 -13z"/>
<path d="M4337 177 c-6 -16 39 -51 48 -37 3 6 3 19 0 30 -7 22 -40 27 -48 7z"/>
<path d="M943 130 c0 -25 2 -35 4 -22 2 12 2 32 0 45 -2 12 -4 2 -4 -23z"/>
<path d="M4851 157 c-9 -12 -8 -16 3 -20 19 -7 27 4 17 21 -6 10 -10 10 -20
-1z"/>
<path d="M3055 140 c-10 -16 -3 -20 45 -26 32 -4 41 -2 38 8 -3 7 -13 14 -24
14 -10 1 -26 5 -35 9 -10 3 -20 1 -24 -5z"/>
<path d="M3457 134 c-8 -8 1 -24 13 -24 4 0 10 7 14 15 5 15 -14 21 -27 9z"/>
<path d="M3567 122 c2 -10 -3 -26 -12 -36 -15 -15 -13 -16 37 -15 47 0 50 2
26 11 -20 7 -27 16 -25 31 1 13 -4 23 -15 25 -12 2 -15 -2 -11 -16z"/>
<path d="M4344 114 c3 -9 6 -20 6 -25 0 -5 9 -9 20 -9 22 0 26 20 8 38 -18 18
-41 15 -34 -4z"/>
<path d="M3706 111 c-4 -5 -2 -12 3 -15 5 -4 12 -2 15 3 4 5 2 12 -3 15 -5 4
-12 2 -15 -3z"/>
<path d="M3100 74 c0 -8 5 -12 10 -9 6 3 10 10 10 16 0 5 -4 9 -10 9 -5 0 -10
-7 -10 -16z"/>
<path d="M4179 75 c-14 -14 -22 -15 -56 -5 -31 10 -45 10 -63 0 -19 -10 -20
-14 -9 -21 20 -11 187 5 202 20 8 8 7 11 -3 11 -8 0 -24 3 -35 6 -11 3 -27 -2
-36 -11z"/>
<path d="M2675 61 c-6 -11 9 -23 19 -14 9 9 7 23 -3 23 -6 0 -12 -4 -16 -9z"/>
<path d="M4347 50 c-5 -19 17 -35 34 -24 14 8 11 18 -10 31 -16 10 -20 9 -24
-7z"/>
<path d="M2631 44 c0 -11 3 -14 6 -6 3 7 2 16 -1 19 -3 4 -6 -2 -5 -13z"/>
<path d="M3070 21 c0 -10 19 -25 25 -20 1 2 -3 10 -11 17 -8 7 -14 8 -14 3z"/>
<path d="M4085 23 c-54 -13 -32 -23 52 -23 95 0 127 6 117 21 -7 13 -58 11
-89 -3 -19 -9 -28 -9 -37 0 -7 7 -14 11 -17 11 -4 -1 -15 -3 -26 -6z"/>
</g>
</svg>
